HIERARCHY
ROOT Hips
{
	OFFSET 55.129501 -7.732196 96.160797
	CHANNELS 6 Xposition Yposition Zposition Xrotation Yrotation Zrotation
	JOINT spine
	{
		OFFSET 0.000000 -0.467660 8.132492
		CHANNELS 3 Xrotation Yrotation Zrotation
		JOINT spine1
		{
			OFFSET 0.000000 -0.000002 10.349800
			CHANNELS 3 Xrotation Yrotation Zrotation
			JOINT spine2
			{
				OFFSET 0.000000 -0.000001 9.916992
				CHANNELS 3 Xrotation Yrotation Zrotation
				JOINT Neck
				{
					OFFSET 0.000000 -1.213904 25.461006
					CHANNELS 3 Xrotation Yrotation Zrotation
					JOINT Head
					{
						OFFSET 0.000000 -0.000001 7.692444
						CHANNELS 3 Xrotation Yrotation Zrotation
						End Site
						{
							OFFSET 0.000000 6.140627 18.619995
						}
					}
				}
				JOINT RightShoulder
				{
					OFFSET -4.175751 0.581443 10.709602
					CHANNELS 3 Xrotation Yrotation Zrotation
					JOINT RightArm
					{
						OFFSET 0.000000 -0.000002 14.046600
						CHANNELS 3 Xrotation Yrotation Zrotation
						JOINT RightArmRoll
						{
							OFFSET 0.000000 -0.000001 7.090973
							CHANNELS 3 Xrotation Yrotation Zrotation
							JOINT RightForeArm
							{
								OFFSET 0.000000 -0.000003 20.653503
								CHANNELS 3 Xrotation Yrotation Zrotation
								JOINT RightForeArmRoll
								{
									OFFSET 0.000000 -0.000001 7.957184
									CHANNELS 3 Xrotation Yrotation Zrotation
									JOINT RightHand
									{
										OFFSET 0.000000 -0.000003 15.968292
										CHANNELS 3 Xrotation Yrotation Zrotation
										End Site
										{
											OFFSET 0.000000 0.000000 0.100006
										}
									}
								}
							}
						}
					}
				}
				JOINT LeftShoulder
				{
					OFFSET 4.175751 0.581443 10.709602
					CHANNELS 3 Xrotation Yrotation Zrotation
					JOINT LeftArm
					{
						OFFSET 0.000000 -0.000002 14.046600
						CHANNELS 3 Xrotation Yrotation Zrotation
						JOINT LeftArmRoll
						{
							OFFSET 0.000000 -0.000001 7.090973
							CHANNELS 3 Xrotation Yrotation Zrotation
							JOINT LeftForeArm
							{
								OFFSET 0.000000 -0.000003 20.653503
								CHANNELS 3 Xrotation Yrotation Zrotation
								JOINT LeftForeArmRoll
								{
									OFFSET 0.000000 -0.000001 7.957184
									CHANNELS 3 Xrotation Yrotation Zrotation
									JOINT LeftHand
									{
										OFFSET 0.000000 -0.000003 15.968292
										CHANNELS 3 Xrotation Yrotation Zrotation
										End Site
										{
											OFFSET 0.000000 0.000000 0.100006
										}
									}
								}
							}
						}
					}
				}
			}
		}
	}
	JOINT RightUpLeg
	{
		OFFSET -7.208340 1.108840 -1.321823
		CHANNELS 3 Xrotation Yrotation Zrotation
		JOINT RightUpLegRoll
		{
			OFFSET 0.000000 -0.000003 18.723801
			CHANNELS 3 Xrotation Yrotation Zrotation
			JOINT RightLeg
			{
				OFFSET 0.000000 0.000004 -23.186600
				CHANNELS 3 Xrotation Yrotation Zrotation
				JOINT RightLegRoll
				{
					OFFSET 0.000000 -0.000004 23.262398
					CHANNELS 3 Xrotation Yrotation Zrotation
					JOINT RightFoot
					{
						OFFSET 0.000000 -0.000003 19.362099
						CHANNELS 3 Xrotation Yrotation Zrotation
						JOINT RightToeBase
						{
							OFFSET 0.000000 -0.000003 16.185699
							CHANNELS 3 Xrotation Yrotation Zrotation
							End Site
							{
								OFFSET 0.006859 0.903521 7.838623
							}
						}
					}
				}
			}
		}
	}
	JOINT LeftUpLeg
	{
		OFFSET 7.208340 1.108840 -1.321823
		CHANNELS 3 Xrotation Yrotation Zrotation
		JOINT LeftUpLegRoll
		{
			OFFSET 0.000000 -0.000003 18.723900
			CHANNELS 3 Xrotation Yrotation Zrotation
			JOINT LeftLeg
			{
				OFFSET 0.000000 -0.000004 23.186501
				CHANNELS 3 Xrotation Yrotation Zrotation
				JOINT LeftLegRoll
				{
					OFFSET 0.000000 -0.000004 23.477493
					CHANNELS 3 Xrotation Yrotation Zrotation
					JOINT LeftFoot
					{
						OFFSET 0.000000 -0.000003 19.147003
						CHANNELS 3 Xrotation Yrotation Zrotation
						JOINT LeftToeBase
						{
							OFFSET 0.000000 -0.000003 16.185699
							CHANNELS 3 Xrotation Yrotation Zrotation
							End Site
							{
								OFFSET -0.030746 0.903521 7.838623
							}
						}
					}
				}
			}
		}
	}
}
MOTION
Frames: 13
Frame Time: 0.041667
54.327892 -5.963898 96.154808 -3.149736 0.821761 1.658889 -1.191627 -0.506211 0.059412 1.620080 -1.027559 0.113241 3.265275 -1.026281 0.125438 8.665037 5.650422 -5.390227 0.944702 -4.072528 -5.455264 -17.571852 -58.003653 -20.759689 -45.129256 -118.834882 -15.433465 -0.000002 -0.000001 -0.000005 0.006618 -1.474061 -0.399236 -0.000001 0.000005 -3.019091 -5.000155 -7.999960 0.000034 -15.213099 61.280334 18.029492 -40.734596 114.771384 24.702503 0.000003 0.000001 0.000003 0.043149 6.466330 1.205752 0.000005 -0.000001 3.028761 -5.000194 7.999181 -0.000091 -2.079565 -173.373328 3.090463 179.999991 -0.000005 -0.994006 170.385885 -1.270903 -0.579264 0.000000 -0.000000 -0.028007 68.525819 6.136327 4.065560 25.456955 -7.355614 0.000001 -1.214143 173.025549 -1.904337 -0.000005 -0.000005 -0.919199 -11.859939 1.625130 0.737923 -0.000002 -0.000002 -0.085071 71.451435 -5.987174 -4.450446 25.457964 7.355615 -0.001520 
54.337696 -5.959683 96.153008 -3.141576 0.824111 1.663460 -1.194588 -0.509767 0.059743 1.614163 -1.033630 0.113834 3.259350 -1.032338 0.126112 8.660742 5.694212 -5.394120 0.956570 -4.100701 -5.459409 -17.584793 -57.959899 -20.774714 -45.074239 -118.856602 -15.337866 0.000000 -0.000001 -0.000004 0.006621 -1.439659 -0.397250 -0.000003 0.000004 -3.019113 -5.000154 -7.999961 0.000031 -15.189314 61.306303 18.002149 -40.729466 114.756276 24.655653 0.000004 0.000001 0.000004 0.043147 6.445300 1.207607 0.000005 -0.000001 3.028757 -5.000198 7.999181 -0.000092 -2.082094 -173.375336 3.089604 179.999991 -0.000005 -0.994007 170.392470 -1.272895 -0.579450 -0.000000 0.000000 -0.028007 68.522930 6.137186 4.065083 25.456957 -7.355616 -0.000000 -1.224522 173.024579 -1.903406 -0.000004 -0.000005 -0.919151 -11.864643 1.625308 0.738020 -0.000001 -0.000002 -0.085001 71.454113 -5.986595 -4.451206 25.457966 7.355617 -0.001521 
54.339497 -5.964726 96.136803 -3.131836 0.826768 1.669145 -1.198140 -0.514017 0.060507 1.607076 -1.041060 0.115280 3.252267 -1.039733 0.127654 8.659530 5.745708 -5.400069 0.967346 -4.134233 -5.465485 -17.597921 -57.907341 -20.789813 -45.003789 -118.880508 -15.226288 0.000001 -0.000001 -0.000006 0.006629 -1.405250 -0.395208 -0.000003 0.000004 -3.019081 -5.000157 -7.999959 0.000034 -15.158118 61.339238 17.966179 -40.729350 114.736701 24.615008 0.000002 0.000002 0.000004 0.043147 6.425350 1.209412 0.000004 -0.000001 3.028757 -5.000196 7.999181 -0.000092 -2.085719 -173.377344 3.088678 179.999991 -0.000005 -0.994006 170.399491 -1.274902 -0.579630 0.000000 0.000000 -0.028006 68.519959 6.138147 4.064433 25.456953 -7.355616 0.000000 -1.236779 173.022612 -1.902325 -0.000005 -0.000004 -0.919078 -11.869747 1.625718 0.738162 -0.000001 -0.000002 -0.084895 71.456824 -5.985855 -4.452442 25.457968 7.355617 -0.001520 
54.328598 -5.967753 96.137901 -3.120999 0.829640 1.675605 -1.202088 -0.518752 0.061575 1.599179 -1.049431 0.117321 3.244364 -1.048078 0.129804 8.660485 5.802602 -5.407447 0.977357 -4.171505 -5.472900 -17.611255 -57.848717 -20.805087 -44.923510 -118.905274 -15.104757 -0.000002 -0.000001 -0.000005 0.006639 -1.370850 -0.393122 0.000000 0.000004 -3.019012 -5.000155 -7.999960 0.000033 -15.121658 61.377139 17.924134 -40.730747 114.715172 24.576491 0.000003 0.000001 0.000005 0.043150 6.406140 1.211166 0.000005 -0.000000 3.028761 -5.000198 7.999181 -0.000092 -2.090119 -173.379366 3.087703 179.999991 -0.000004 -0.994006 170.406758 -1.276895 -0.579800 0.000001 0.000000 -0.028002 68.517104 6.139152 4.063682 25.456955 -7.355615 0.000001 -1.250332 173.020658 -1.901175 -0.000005 -0.000004 -0.918991 -11.875054 1.626293 0.738336 -0.000001 -0.000002 -0.084765 71.459611 -5.985030 -4.453856 25.457968 7.355618 -0.001520 
54.326897 -5.969954 96.151703 -3.109539 0.832636 1.682521 -1.206272 -0.523764 0.062815 1.590811 -1.058352 0.119701 3.236001 -1.056952 0.132299 8.662675 5.862579 -5.415651 0.986938 -4.210917 -5.481065 -17.624663 -57.786604 -20.820358 -44.838167 -118.930396 -14.978026 -0.000003 -0.000001 -0.000006 0.006652 -1.336439 -0.391011 -0.000001 0.000005 -3.018918 -5.000156 -7.999960 0.000033 -15.082108 61.417724 17.878498 -40.734053 114.691826 24.540357 0.000002 0.000001 0.000004 0.043149 6.387350 1.212902 0.000003 -0.000000 3.028761 -5.000195 7.999180 -0.000093 -2.094955 -173.381388 3.086709 179.999991 -0.000006 -0.994006 170.414176 -1.278890 -0.578970 0.000000 0.000000 -0.027998 68.514249 6.140119 4.063026 25.456952 -7.355615 -0.000000 -1.264635 173.018677 -1.899983 -0.000005 -0.000004 -0.918892 -11.880460 1.626966 0.738528 -0.000000 -0.000002 -0.084622 71.462487 -5.984106 -4.455451 25.457969 7.355618 -0.001520 
54.331795 -5.965405 96.142700 -3.097910 0.835666 1.689546 -1.210524 -0.528846 0.064099 1.582325 -1.067403 0.122164 3.227520 -1.065967 0.134878 8.665189 5.923324 -5.424071 0.996408 -4.250870 -5.489426 -17.638033 -57.723575 -20.835574 -44.749634 -118.956692 -14.847861 0.000000 -0.000001 -0.000005 0.006663 -1.302029 -0.388892 -0.000002 0.000005 -3.018830 -5.000156 -7.999961 0.000034 -15.041707 61.458992 17.831889 -40.737191 114.668412 24.504152 0.000004 0.000000 0.000003 0.043151 6.368681 1.214623 0.000004 -0.000001 3.028758 -5.000196 7.999181 -0.000093 -2.099906 -173.384393 3.085736 179.999991 -0.000005 -0.994006 170.421635 -1.281881 -0.579303 -0.000000 -0.000000 -0.027993 68.511401 6.141126 4.062274 25.456952 -7.355614 -0.000000 -1.279130 173.016738 -1.898778 -0.000005 -0.000005 -0.918793 -11.885865 1.627658 0.738724 -0.000001 -0.000002 -0.084475 71.465260 -5.983211 -4.457055 25.457964 7.355616 -0.001520 
54.335495 -5.968633 96.150505 -3.086601 0.838638 1.696341 -1.214655 -0.533789 0.065294 1.574077 -1.076194 0.124454 3.219268 -1.074712 0.137281 8.667093 5.982526 -5.432084 1.006097 -4.289752 -5.497377 -17.651335 -57.662308 -20.850696 -44.665209 -118.982223 -14.722003 0.000001 -0.000001 -0.000002 0.006673 -1.267620 -0.386791 -0.000000 0.000006 -3.018738 -5.000154 -7.999960 0.000036 -15.002698 61.498866 17.786883 -40.739473 114.645941 24.466895 0.000004 0.000000 0.000002 0.043149 6.349791 1.216361 0.000005 -0.000000 3.028761 -5.000198 7.999182 -0.000093 -2.104628 -173.386428 3.084736 179.999991 -0.000005 -0.994006 170.428998 -1.283888 -0.579472 0.000001 0.000000 -0.027989 68.508443 6.142161 4.061535 25.456952 -7.355616 0.000000 -1.293236 173.015768 -1.897610 -0.000004 -0.000004 -0.918698 -11.891273 1.628311 0.738914 -0.000001 -0.000002 -0.084336 71.468046 -5.982353 -4.458565 25.457964 7.355617 -0.001520 
54.347897 -5.984347 96.151299 -3.076082 0.841459 1.702578 -1.218487 -0.538386 0.066272 1.566411 -1.084295 0.126315 3.211604 -1.082777 0.139247 8.667460 6.037875 -5.439064 1.016335 -4.325961 -5.504349 -17.664491 -57.605426 -20.865709 -44.589422 -119.006416 -14.605188 0.000000 0.000000 -0.000002 0.006684 -1.233219 -0.384721 -0.000001 0.000004 -3.018692 -5.000154 -7.999960 0.000033 -14.967338 61.535251 17.746104 -40.739674 114.625232 24.426896 0.000003 0.000000 0.000002 0.043149 6.330370 1.218123 0.000004 -0.000001 3.028760 -5.000198 7.999181 -0.000091 -2.108808 -173.388437 3.083777 179.999991 -0.000004 -0.994006 170.436224 -1.286866 -0.579808 0.000000 -0.000000 -0.027986 68.505582 6.143093 4.060873 25.456957 -7.355614 0.000000 -1.306420 173.013787 -1.896482 -0.000005 -0.000005 -0.918614 -11.896478 1.628838 0.739078 -0.000000 -0.000002 -0.084213 71.470840 -5.981525 -4.459980 25.457964 7.355616 -0.001520 
54.341995 -5.983415 96.152397 -3.066815 0.844037 1.707919 -1.221856 -0.542429 0.066903 1.559673 -1.091326 0.127493 3.204871 -1.089773 0.140517 8.665379 6.087063 -5.444381 1.027439 -4.357901 -5.509770 -17.677375 -57.555456 -20.880477 -44.524132 -119.030007 -14.499045 -0.000005 -0.000001 -0.000003 0.006691 -1.198810 -0.382695 -0.000003 0.000003 -3.018675 -5.000155 -7.999962 0.000031 -14.937933 61.566062 17.712221 -40.738735 114.606599 24.385232 0.000004 0.000001 0.000002 0.043147 6.310091 1.219937 0.000004 -0.000001 3.028759 -5.000197 7.999180 -0.000093 -2.112109 -173.390458 3.082870 179.999991 -0.000005 -0.994006 170.443081 -1.288872 -0.579987 0.000000 -0.000001 -0.027985 68.502699 6.144027 4.060310 25.456955 -7.355614 -0.000000 -1.318119 173.011834 -1.895432 -0.000005 -0.000005 -0.918549 -11.901482 1.629179 0.739209 -0.000001 -0.000002 -0.084118 71.473579 -5.980853 -4.460923 25.457966 7.355616 -0.001520 
54.337891 -5.990685 96.153801 -3.059284 0.846277 1.712038 -1.224588 -0.545708 0.067056 1.554215 -1.096856 0.127733 3.199406 -1.095291 0.140831 8.659899 6.127773 -5.447411 1.039749 -4.383951 -5.513044 -17.690026 -57.515213 -20.895111 -44.476385 -119.051003 -14.410970 -0.000000 0.000000 -0.000003 0.006697 -1.164409 -0.380734 -0.000002 0.000004 -3.018724 -5.000156 -7.999961 0.000031 -14.916708 61.589127 17.687837 -40.731328 114.593171 24.335537 0.000003 0.000000 0.000002 0.043148 6.288629 1.221828 0.000003 -0.000000 3.028758 -5.000197 7.999181 -0.000091 -2.114197 -173.392466 3.082044 179.999991 -0.000005 -0.994007 170.449529 -1.289880 -0.578996 0.000001 0.000000 -0.027986 68.499810 6.144887 4.059734 25.456953 -7.355614 -0.000000 -1.327767 173.010864 -1.894536 -0.000005 -0.000004 -0.918511 -11.905985 1.629260 0.739285 -0.000000 -0.000002 -0.084061 71.476256 -5.980336 -4.461594 25.457969 7.355615 -0.001520 
54.340797 -5.993775 96.150002 -3.053956 0.848089 1.714585 -1.226497 -0.548017 0.066602 1.550387 -1.100487 0.126781 3.195579 -1.098929 0.139930 8.650086 6.157698 -5.447525 1.053590 -4.402509 -5.513606 -17.702228 -57.487086 -20.909390 -44.448303 -119.070278 -14.343018 -0.000001 -0.000001 -0.000005 0.006698 -1.130019 -0.378853 -0.000002 0.000005 -3.018839 -5.000154 -7.999960 0.000031 -14.906010 61.602446 17.675645 -40.719621 114.584469 24.280175 0.000004 0.000001 0.000002 0.043148 6.265680 1.223792 0.000004 -0.000001 3.028758 -5.000199 7.999180 -0.000091 -2.114742 -173.394461 3.081304 179.999991 -0.000005 -0.994006 170.455444 -1.290886 -0.579028 -0.000000 -0.000000 -0.027991 68.496798 6.145699 4.059357 25.456955 -7.355613 -0.000000 -1.334799 173.009866 -1.893797 -0.000005 -0.000005 -0.918505 -11.910083 1.629011 0.739296 -0.000001 -0.000002 -0.084052 71.478804 -5.980037 -4.461809 25.457968 7.355618 -0.001521 
54.346996 -5.986823 96.150803 -3.051296 0.849378 1.715245 -1.227418 -0.549148 0.065411 1.548537 -1.101818 0.124382 3.193730 -1.100279 0.137553 8.635034 6.174515 -5.444091 1.069280 -4.411965 -5.510873 -17.714077 -57.473931 -20.923480 -44.446780 -119.085742 -14.302572 -0.000000 -0.000000 -0.000004 0.006697 -1.095629 -0.377076 -0.000003 0.000005 -3.019047 -5.000151 -7.999962 0.000034 -14.908129 61.603935 17.678297 -40.701336 114.582181 24.216337 0.000004 0.000002 0.000005 0.043149 6.240910 1.225858 0.000003 -0.000001 3.028761 -5.000198 7.999181 -0.000093 -2.113415 -173.396455 3.080680 179.999991 -0.000005 -0.994006 170.460662 -1.291890 -0.579076 -0.000000 -0.000000 -0.028000 68.493861 6.146376 4.059248 25.456953 -7.355615 -0.000000 -1.338672 173.008897 -1.893252 -0.000005 -0.000005 -0.918538 -11.913582 1.628354 0.739229 -0.000001 -0.000002 -0.084102 71.481304 -5.979959 -4.461364 25.457966 7.355616 -0.001519 
54.348095 -5.992984 96.147705 -3.051775 0.850053 1.713668 -1.227178 -0.548892 0.063353 1.549016 -1.100428 0.120281 3.194208 -1.098930 0.133443 8.613810 6.175927 -5.436519 1.087150 -4.410719 -5.504292 -17.725388 -57.478207 -20.937209 -44.473619 -119.098172 -14.291078 -0.000001 -0.000001 -0.000006 0.006681 -1.061239 -0.375420 -0.000001 0.000004 -3.019371 -5.000156 -7.999961 0.000035 -14.925334 61.591525 17.698427 -40.677246 114.586559 24.144727 0.000003 0.000001 0.000001 0.043149 6.214009 1.228051 0.000004 -0.000000 3.028762 -5.000195 7.999181 -0.000092 -2.109891 -173.398436 3.080199 179.999991 -0.000006 -0.994006 170.465143 -1.291905 -0.578975 0.000000 0.000000 -0.028013 68.490794 6.146970 4.059233 25.456957 -7.355616 -0.000000 -1.338816 173.007886 -1.892932 -0.000004 -0.000005 -0.918620 -11.916376 1.627231 0.739070 -0.000001 -0.000001 -0.084221 71.483592 -5.980226 -4.460085 25.457964 7.355616 -0.001520 
